<?xml version="1.0" encoding="UTF-8"?>
<svg width="187px" height="187px" viewBox="0 0 187 187" version="1.1" xmlns="http://www.w3.org/2000/svg" xmlns:xlink="http://www.w3.org/1999/xlink">
    <title>Group</title>
    <g id="app" stroke="none" stroke-width="1" fill="none" fill-rule="evenodd">
        <g id="iPhone-11" transform="translate(-114.000000, -355.000000)">
            <g id="Group" transform="translate(117.000000, 358.000000)">
                <g id="Shape-2" stroke="#FFFFFF" stroke-linecap="round" stroke-width="5.34716963">
                    <path d="M144.37358,0 C164.676557,0 181.135371,16.4588145 181.135371,36.7617912 M181.135371,144.37358 C181.135371,164.676557 164.676557,181.135371 144.37358,181.135371 M36.7617912,181.135371 C16.4588145,181.135371 0,164.676557 0,144.37358 M0,36.7617912 C0,16.4588145 16.4588145,0 36.7617912,0" id="Shape"></path>
                </g>
                <path d="M52.6797912,142.028982 C53.9438326,142.028982 55.174858,141.882211 56.3728675,141.588669 C57.5708769,141.295127 58.7122875,140.864283 59.7970992,140.296138 C60.8819108,139.727992 61.8912574,139.036748 62.8251387,138.222406 C63.7590201,137.408064 64.5844203,136.489563 65.3013393,135.466901 L65.3013393,135.466901 L59.6414523,129.757038 C59.3395916,130.438812 58.9481161,131.059038 58.4670257,131.617714 C57.9859353,132.176391 57.4388129,132.649846 56.8256584,133.038078 C56.212504,133.426311 55.5569004,133.724588 54.8588477,133.932908 C54.1607949,134.141228 53.4344428,134.245388 52.6797912,134.245388 C51.6232789,134.245388 50.6280821,134.046537 49.6942007,133.648835 C48.7603194,133.251133 47.9490689,132.701926 47.2604493,132.001213 C46.5718297,131.3005 46.0294238,130.486158 45.6332317,129.558187 C45.2370397,128.630216 45.0389436,127.635961 45.0389436,126.575423 C45.0389436,125.268688 45.2370397,124.075582 45.6332317,122.996106 C46.0294238,121.916629 46.5718297,120.983924 47.2604493,120.197989 C47.9490689,119.412054 48.7603194,118.801298 49.6942007,118.36572 C50.6280821,117.930141 51.6232789,117.712352 52.6797912,117.712352 C53.4344428,117.712352 54.1702281,117.825981 54.8871471,118.05324 C55.6040661,118.280498 56.2691029,118.611916 56.8822573,119.047494 C57.4954117,119.483073 58.0472507,120.018076 58.5377743,120.652505 C59.0282978,121.286935 59.4150568,122.001851 59.6980511,122.797255 L59.6980511,122.797255 L65.3579382,117.087392 C64.6787518,115.932163 63.8722179,114.909501 62.9383365,114.019406 C62.0044551,113.129312 60.9856754,112.376519 59.8819975,111.761028 C58.7783195,111.145537 57.6180426,110.676817 56.4011669,110.354867 C55.1842912,110.032918 53.9438326,109.871944 52.6797912,109.871944 C50.5479004,109.871944 48.543357,110.307522 46.6661611,111.178679 C44.7889653,112.049835 43.147598,113.238206 41.7420594,114.743792 C40.3365208,116.249378 39.2281262,118.015363 38.4168757,120.041749 C37.6056252,122.068135 37.2,124.246026 37.2,126.575423 C37.2,128.715438 37.6056252,130.722885 38.4168757,132.597766 C39.2281262,134.472646 40.3365208,136.110799 41.7420594,137.512225 C43.147598,138.91365 44.7889653,140.016799 46.6661611,140.821672 C48.543357,141.626545 50.5479004,142.028982 52.6797912,142.028982 Z M82.4790966,142.028982 C84.6298537,142.028982 86.6438302,141.617076 88.5210261,140.793265 C90.398222,139.969454 92.0348726,138.842632 93.4309781,137.412799 C94.8270836,135.982966 95.9307616,134.287999 96.7420121,132.327896 C97.5532625,130.367794 97.9588878,128.251452 97.9588878,125.97887 C97.9588878,123.554782 97.5532625,121.353218 96.7420121,119.374178 C95.9307616,117.395138 94.8270836,115.70017 93.4309781,114.289275 C92.0348726,112.878381 90.398222,111.789435 88.5210261,111.022438 C86.6438302,110.255442 84.6298537,109.871944 82.4790966,109.871944 C80.3472058,109.871944 78.3426625,110.279115 76.4654666,111.093457 C74.5882707,111.907799 72.9469035,113.029886 71.5413648,114.459719 C70.1358262,115.889552 69.0274317,117.589254 68.2161812,119.558825 C67.4049307,121.528397 66.9993055,123.668411 66.9993055,125.97887 C66.9993055,128.251452 67.4049307,130.367794 68.2161812,132.327896 C69.0274317,134.287999 70.1358262,135.982966 71.5413648,137.412799 C72.9469035,138.842632 74.5882707,139.969454 76.4654666,140.793265 C78.3426625,141.617076 80.3472058,142.028982 82.4790966,142.028982 Z M82.4790966,134.245388 C81.4225844,134.245388 80.4273876,134.032333 79.4935062,133.606224 C78.5596248,133.180115 77.7483743,132.597766 77.0597547,131.859176 C76.3711352,131.120587 75.8287293,130.249431 75.4325372,129.245707 C75.0363451,128.241983 74.8382491,127.153037 74.8382491,125.97887 C74.8382491,124.72895 75.0363451,123.597393 75.4325372,122.5842 C75.8287293,121.571007 76.3711352,120.699851 77.0597547,119.970731 C77.7483743,119.241611 78.5596248,118.682934 79.4935062,118.294701 C80.4273876,117.906469 81.4225844,117.712352 82.4790966,117.712352 C83.5356089,117.712352 84.5308057,117.906469 85.4646871,118.294701 C86.3985684,118.682934 87.2145355,119.241611 87.9125882,119.970731 C88.610641,120.699851 89.16248,121.571007 89.5681052,122.5842 C89.9737304,123.597393 90.1765431,124.72895 90.1765431,125.97887 C90.1765431,127.209852 89.9737304,128.336674 89.5681052,129.359336 C89.16248,130.381998 88.610641,131.253154 87.9125882,131.972805 C87.2145355,132.692456 86.3985684,133.251133 85.4646871,133.648835 C84.5308057,134.046537 83.5356089,134.245388 82.4790966,134.245388 Z M106.137425,105.940249 C106.854344,105.940249 107.528814,105.802947 108.160834,105.528343 C108.792855,105.25374 109.344694,104.884445 109.816351,104.42046 C110.288008,103.956474 110.660618,103.412001 110.934179,102.787041 C111.20774,102.162081 111.344521,101.489775 111.344521,100.770124 C111.344521,100.069412 111.20774,99.4018406 110.934179,98.7674114 C110.660618,98.1329822 110.288008,97.5837749 109.816351,97.1197893 C109.344694,96.6558038 108.792855,96.2865092 108.160834,96.0119055 C107.528814,95.7373018 106.854344,95.6 106.137425,95.6 C105.420506,95.6 104.746036,95.7373018 104.114015,96.0119055 C103.481994,96.2865092 102.934872,96.6558038 102.472648,97.1197893 C102.010424,97.5837749 101.642531,98.1329822 101.36897,98.7674114 C101.095409,99.4018406 100.958628,100.069412 100.958628,100.770124 C100.958628,101.489775 101.095409,102.162081 101.36897,102.787041 C101.642531,103.412001 102.010424,103.956474 102.472648,104.42046 C102.934872,104.884445 103.481994,105.25374 104.114015,105.528343 C104.746036,105.802947 105.420506,105.940249 106.137425,105.940249 Z M110.014447,141.460836 L110.014447,111.036642 L102.232103,111.036642 L102.232103,141.460836 L110.014447,141.460836 Z M123.626476,141.460836 L123.626476,124.075582 C123.626476,123.280179 123.777406,122.527386 124.079267,121.817204 C124.381127,121.107022 124.796186,120.486796 125.324442,119.956527 C125.852698,119.426258 126.475286,119.009618 127.192205,118.706607 C127.909124,118.403596 128.673208,118.252091 129.484459,118.252091 C130.276843,118.252091 131.022061,118.403596 131.720114,118.706607 C132.418167,119.009618 133.031321,119.426258 133.559578,119.956527 C134.087834,120.486796 134.502892,121.107022 134.804753,121.817204 C135.106613,122.527386 135.257544,123.280179 135.257544,124.075582 L135.257544,124.075582 L135.257544,141.460836 L142.983289,141.460836 L142.983289,124.075582 C142.983289,122.200702 142.629547,120.434716 141.922061,118.777625 C141.214575,117.120534 140.247677,115.671763 139.021369,114.431312 C137.79506,113.190861 136.361222,112.215544 134.719854,111.505362 C133.078487,110.79518 131.333355,110.440089 129.484459,110.440089 C127.767626,110.440089 126.121543,110.747835 124.546207,111.363326 C122.970872,111.978817 121.560617,112.854708 120.315442,113.990999 L120.315442,113.990999 L117.768493,111.036642 L115.90073,111.036642 L115.90073,141.460836 L123.626476,141.460836 Z" id="coin" stroke="#FFFFFF" stroke-width="1.2" fill="#F9DC5C" fill-rule="nonzero"></path>
                <path d="M96.8,100.4 C96.8,101.50542 96.9949586,102.565305 97.3523675,103.547146 L40.3734987,103.546997 C38.6208238,103.546997 37.2,102.126174 37.2,100.373499 C37.2,98.6208238 38.6208238,97.2 40.3734987,97.2 L97.3722325,97.1988133 C97.0021886,98.1957629 96.8,99.2742696 96.8,100.4 Z M139.809791,97.2 C141.562466,97.2 142.983289,98.6208238 142.983289,100.373499 C142.983289,102.126174 141.562466,103.546997 139.809791,103.546997 L114.647632,103.547146 C115.005041,102.565305 115.2,101.50542 115.2,100.4 C115.2,99.2742696 114.997811,98.1957629 114.627768,97.1988133 L139.809791,97.2 Z" id="Combined-Shape" fill="#FFFFFF"></path>
                <path d="M47.8921875,89.275 L47.8921875,69.9 L46.9546875,45.36875 L47.1890625,45.3296875 L63.9859375,89.275 L70.353125,89.275 L87.228125,45.2125 L87.4625,45.2515625 L86.525,69.9 L86.525,89.275 L96.0171875,89.275 L96.0171875,32.4 L83.7125,32.4 L67.30625,76.15 L67.071875,76.15 L50.7046875,32.4 L38.4,32.4 L38.4,89.275 L47.8921875,89.275 Z M144.103125,89.275 L144.103125,81.696875 L117.970312,81.696875 L117.970312,32.4 L108.478125,32.4 L108.478125,89.275 L144.103125,89.275 Z" id="ML" stroke="#FFFFFF" stroke-width="1.2" fill="#979DAC" fill-rule="nonzero"></path>
            </g>
        </g>
    </g>
</svg>